<svg width="24" height="24" viewBox="0 0 24 24" fill="none" xmlns="http://www.w3.org/2000/svg">
<path fill-rule="evenodd" clip-rule="evenodd" d="M5.94023 4.52133V2.88591C5.9404 2.30027 6.13234 1.73413 6.48115 1.29038C6.82997 0.846636 7.31251 0.554734 7.84108 0.467724L9.39749 0.211928C11.1229 -0.0706425 12.8771 -0.0706425 14.6025 0.211928L16.1589 0.467724C16.6875 0.554734 17.17 0.846636 17.5188 1.29038C17.8677 1.73413 18.0596 2.30027 18.0598 2.88591V4.52133L20.2464 4.71423C21.0599 4.78624 21.8279 5.15505 22.4276 5.76168C23.0273 6.36832 23.4241 7.17775 23.5544 8.06055C24.1485 12.0758 24.1485 16.1698 23.5544 20.185C23.4241 21.0678 23.0273 21.8773 22.4276 22.4839C21.8279 23.0905 21.0599 23.4594 20.2464 23.5314L17.8582 23.741C13.9591 24.0863 10.0409 24.0863 6.14179 23.741L3.7536 23.5314C2.94006 23.4594 2.17205 23.0905 1.57236 22.4839C0.972672 21.8773 0.575943 21.0678 0.445605 20.185C-0.148535 16.1698 -0.148535 12.0758 0.445605 8.06055C0.576202 7.178 0.973044 6.36889 1.57271 5.76253C2.17237 5.15618 2.94025 4.78757 3.7536 4.71563L5.94023 4.52133ZM9.68198 2.28486C11.2188 2.03335 12.7812 2.03335 14.318 2.28486L15.8744 2.54066C15.9499 2.55304 16.0189 2.59469 16.0688 2.65805C16.1186 2.7214 16.1461 2.80225 16.1462 2.88591V4.37456C13.3843 4.20174 10.6157 4.20174 7.85384 4.37456V2.88451C7.85391 2.80086 7.88138 2.72 7.93124 2.65665C7.98111 2.59329 8.05006 2.55164 8.12557 2.53926L9.68198 2.28486ZM6.29616 6.59287C10.0928 6.2574 13.9072 6.2574 17.7038 6.59287L20.092 6.80533C20.479 6.83926 20.8445 7.01443 21.1299 7.30281C21.4153 7.59119 21.6042 7.97612 21.6663 8.39602C21.7454 8.93371 21.8134 9.47326 21.8704 10.0147C18.7996 11.6708 15.4227 12.532 12 12.532C8.57735 12.532 5.20041 11.6708 2.12958 10.0147C2.18572 9.47419 2.25376 8.93464 2.3337 8.39602C2.39584 7.97612 2.58472 7.59119 2.87012 7.30281C3.15553 7.01443 3.52097 6.83926 3.90797 6.80533L6.29616 6.59287ZM1.95864 12.2456C5.11212 13.8162 8.53598 14.6289 12 14.6289C15.464 14.6289 18.8879 13.8162 22.0414 12.2456C22.1635 14.7876 22.0378 17.3367 21.6663 19.8496C21.6044 20.2697 21.4157 20.655 21.1302 20.9436C20.8448 21.2323 20.4792 21.4077 20.092 21.4417L17.7038 21.6513C13.9072 21.9868 10.0928 21.9868 6.29616 21.6513L3.90797 21.4417C3.52078 21.4077 3.1552 21.2323 2.86978 20.9436C2.58435 20.655 2.39558 20.2697 2.3337 19.8496C1.96246 17.3335 1.83616 14.784 1.95864 12.2456Z" fill="black"/>
</svg>
